# xmcd CD database file
#
# Track frame offsets:
#	150
#	14250
#	27125
#	39137
#	52275
#	64012
#	79800
#	89625
#	102312
#	113625
#	123250
#	132737
#
# Disc length: 1878 seconds
#
# Revision: 0
# Processed by: cddbd v1.5.2PL0 Copyright (c) Steve Scherf et al.
# Submitted via: CDex 1.51
#
DISCID=9e07540c
DTITLE=The Rolling Stones - 12 õ 5
DYEAR=1964
DGENRE=Rhythm and Blues
TTITLE0=Around And Around
TTITLE1=Confessin' The Blues
TTITLE2=Empty Heart
TTITLE3=Time Is On My Side
TTITLE4=Good Times, Bad Times
TTITLE5=It's All Over Now
TTITLE6=2120 South Michigan Avenue
TTITLE7=Under The Boardwalk
TTITLE8=Congratulations
TTITLE9=Grown Up Wrong
TTITLE10=If You Need Me
TTITLE11=Susie Q
EXTD=YEAR: 1964
EXTT0=
EXTT1=
EXTT2=
EXTT3=
EXTT4=
EXTT5=
EXTT6=
EXTT7=
EXTT8=
EXTT9=
EXTT10=
EXTT11=
PLAYORDER=
